<?xml version="1.0" standalone="no"?>
<!DOCTYPE svg PUBLIC "-//W3C//DTD SVG 20010904//EN"
 "http://www.w3.org/TR/2001/REC-SVG-20010904/DTD/svg10.dtd">
<svg version="1.0" xmlns="http://www.w3.org/2000/svg"
 width="295.000000pt" height="295.000000pt" viewBox="0 0 295.000000 295.000000"
 preserveAspectRatio="xMidYMid meet">
<metadata>
Created by potrace 1.14, written by Peter Selinger 2001-2017
</metadata>
<g transform="translate(0.000000,295.000000) scale(0.100000,-0.100000)"
fill="#000000" stroke="none">
<path d="M1540 2775 c-8 -2 -49 -8 -90 -15 -97 -15 -263 -70 -365 -122 -295
-148 -534 -430 -631 -745 l-29 -93 -207 0 c-115 0 -208 -3 -209 -7 -1 -5 -2
-369 -2 -811 l-2 -802 341 0 c265 0 343 3 346 13 2 6 3 123 3 260 -1 136 0
247 2 247 1 0 34 -31 73 -69 173 -171 382 -284 634 -343 71 -16 126 -21 251
-22 170 -1 215 4 338 35 487 123 862 531 940 1019 19 120 16 346 -7 449 -54
245 -163 446 -336 623 -188 191 -401 307 -665 364 -71 15 -339 28 -385 19z
m279 -701 c190 -43 363 -206 421 -395 17 -56 20 -79 22 -149 3 -150 -55 -292
-165 -404 -80 -82 -65 -88 -153 66 l-55 97 17 33 c9 18 42 76 72 128 72 125
102 178 102 182 0 2 -39 3 -86 3 l-85 0 -46 -85 c-24 -46 -52 -99 -61 -117
l-17 -32 -45 87 c-24 48 -46 90 -48 94 -1 4 17 13 42 19 102 25 163 118 153
231 -7 79 -43 132 -117 172 -51 28 -61 30 -195 33 -77 1 -142 3 -145 4 -15 2
85 33 143 43 80 14 156 11 246 -10z m-465 -407 l1 -322 75 0 75 0 5 120 c5
118 5 119 23 92 9 -14 17 -28 17 -30 0 -3 29 -55 66 -117 39 -68 63 -119 59
-129 -3 -8 -45 -82 -92 -163 l-85 -147 -51 19 c-64 24 -141 75 -196 130 -218
216 -223 568 -10 790 42 44 102 91 108 84 3 -2 5 -149 5 -327z m328 236 c46
-23 66 -86 43 -140 -18 -43 -45 -55 -134 -57 l-76 -1 -3 107 -3 108 73 -2 c40
0 85 -7 100 -15z m152 -813 c25 -50 46 -94 46 -98 0 -11 -57 -30 -115 -38 -88
-11 -95 -11 -95 -1 0 8 111 227 116 227 1 0 23 -41 48 -90z"/>
</g>
</svg>
